<svg id="Layer_1" data-name="Layer 1" xmlns="http://www.w3.org/2000/svg" viewBox="0 0 161.65 24.84"><defs><style>.cls-1{fill:#333;stroke:#3d3535;stroke-miterlimit:10;}</style></defs><title>contact</title><path class="cls-1" d="M18.84,22.27c0-5.53,4.59-9.61,10.79-9.61a10.43,10.43,0,0,1,7.53,2.76l-1.38,1.27a8.54,8.54,0,0,0-6.09-2.24c-5,0-8.71,3.34-8.71,7.82s3.74,7.83,8.71,7.83a8.43,8.43,0,0,0,6.09-2.27l1.38,1.27a10.47,10.47,0,0,1-7.56,2.78C23.43,31.88,18.84,27.81,18.84,22.27Z" transform="translate(-18.34 -12.16)"/><path class="cls-1" d="M38.37,24.62c0-4.21,3.35-7.21,7.88-7.21s7.86,3,7.86,7.21-3.33,7.24-7.86,7.24S38.37,28.83,38.37,24.62Zm13.62,0a5.4,5.4,0,0,0-5.74-5.53,5.54,5.54,0,1,0,0,11.07A5.41,5.41,0,0,0,52,24.62Z" transform="translate(-18.34 -12.16)"/><path class="cls-1" d="M71.84,23.49v8.23H69.75v-8c0-3-1.7-4.54-4.65-4.54-3.32,0-5.41,1.89-5.41,5.13v7.45H57.6V17.52h2v2.62c1.12-1.73,3.21-2.73,5.89-2.73C69.25,17.41,71.84,19.41,71.84,23.49Z" transform="translate(-18.34 -12.16)"/><path class="cls-1" d="M84.9,30.86a5.32,5.32,0,0,1-3.27,1c-2.91,0-4.53-1.52-4.53-4.13V19.14H74.34V17.52H77.1v-3.1h2.09v3.1H83.9v1.62H79.19v8.48a2.37,2.37,0,0,0,2.68,2.59,3.63,3.63,0,0,0,2.29-.73Z" transform="translate(-18.34 -12.16)"/><path class="cls-1" d="M99.61,22.92v8.8h-2V29.51c-.94,1.45-2.76,2.35-5.32,2.35-3.5,0-5.65-1.68-5.65-4.13,0-2.19,1.53-4,6-4h4.92v-.86c0-2.43-1.5-3.75-4.39-3.75A8.38,8.38,0,0,0,88,20.76L87,19.33a10.46,10.46,0,0,1,6.3-1.92C97.34,17.41,99.61,19.25,99.61,22.92Zm-2.09,4.54V25.13H92.66c-3,0-4,1.08-4,2.54,0,1.65,1.44,2.67,3.91,2.67A5,5,0,0,0,97.52,27.46Z" transform="translate(-18.34 -12.16)"/><path class="cls-1" d="M103,24.62c0-4.24,3.36-7.21,8-7.21a7,7,0,0,1,6.06,2.81l-1.56,1a5.42,5.42,0,0,0-4.5-2.1c-3.39,0-5.86,2.21-5.86,5.53s2.47,5.54,5.86,5.54a5.41,5.41,0,0,0,4.5-2.08l1.56,1A7,7,0,0,1,111,31.86C106.37,31.86,103,28.86,103,24.62Z" transform="translate(-18.34 -12.16)"/><path class="cls-1" d="M128.69,30.86a5.29,5.29,0,0,1-3.26,1c-2.91,0-4.53-1.52-4.53-4.13V19.14h-2.77V17.52h2.77v-3.1H123v3.1h4.7v1.62H123v8.48a2.37,2.37,0,0,0,2.67,2.59,3.64,3.64,0,0,0,2.3-.73Z" transform="translate(-18.34 -12.16)"/><path class="cls-1" d="M160.49,12.83V31.72H158.4V16.6l-8.09,12.72h-1l-8.09-12.63v15H139.1V12.83h1.8l8.94,14,8.86-14Z" transform="translate(-18.34 -12.16)"/><path class="cls-1" d="M179.46,25.22H166.52c.23,3,2.7,4.94,6.09,4.94a6.36,6.36,0,0,0,4.73-1.87l1.18,1.24a7.92,7.92,0,0,1-6,2.33c-4.83,0-8.12-3-8.12-7.24s3.2-7.21,7.56-7.21,7.5,2.95,7.5,7.21C179.49,24.78,179.46,25,179.46,25.22Zm-12.94-1.44h11a5.55,5.55,0,0,0-11,0Z" transform="translate(-18.34 -12.16)"/><line class="cls-1" x1="1.16" y1="24.34" x2="110.16" y2="24.34"/><line class="cls-1" x1="120.16" y1="24.34" x2="161.16" y2="24.34"/></svg>