<?xml version="1.0" encoding="utf-8"?>
<!-- Generator: Adobe Illustrator 23.0.3, SVG Export Plug-In . SVG Version: 6.00 Build 0)  -->
<svg version="1.1" id="Layer_1" xmlns="http://www.w3.org/2000/svg" xmlns:xlink="http://www.w3.org/1999/xlink" x="0px" y="0px"
	 viewBox="0 0 699 196.7" style="enable-background:new 0 0 699 196.7;" xml:space="preserve">
<style type="text/css">
	.st0{enable-background:new    ;}
	.st1{fill:#3C3434;}
	.st2{fill:#3D3535;}
	.st3{fill:none;stroke:#3C3434;stroke-width:3;}
</style>
<g id="Group_4" transform="translate(-632.904 -440.284)">
	<g class="st0">
		<path class="st1" d="M695.6,588.4L684.3,622h-3.7l-9.8-28.7l-9.9,28.7h-3.7l-11.3-33.6h3.6l9.7,28.9l10-28.9h3.3l9.9,29l9.8-29
			H695.6z"/>
		<path class="st1" d="M721.4,610.4h-21.1c0.4,5.3,4.4,8.8,9.9,8.8c3.1,0,5.8-1.1,7.7-3.3l1.9,2.2c-2.3,2.7-5.8,4.1-9.7,4.1
			c-7.9,0-13.2-5.4-13.2-12.9s5.2-12.8,12.3-12.8c7.1,0,12.2,5.2,12.2,12.8C721.5,609.7,721.4,610,721.4,610.4z M700.3,607.9h17.9
			c-0.4-4.9-4-8.4-9-8.4C704.3,599.5,700.7,602.9,700.3,607.9z"/>
		<path class="st1" d="M754,609.4c0,7.6-5.4,12.9-12.6,12.9c-4.2,0-7.7-1.8-9.7-5.2v5h-3.3v-35.6h3.4v15.2c2.1-3.3,5.6-5,9.6-5
			C748.6,596.6,754,601.7,754,609.4z M750.6,609.4c0-5.9-4.1-9.8-9.4-9.8c-5.4,0-9.4,3.9-9.4,9.8s4,9.8,9.4,9.8
			C746.5,619.2,750.6,615.3,750.6,609.4z"/>
		<path class="st1" d="M774.3,588.4H788c10.8,0,18,6.9,18,16.8c0,9.9-7.2,16.8-18,16.8h-13.7V588.4z M787.8,618.9
			c8.9,0,14.7-5.7,14.7-13.7c0-8.1-5.8-13.7-14.7-13.7h-9.9v27.5H787.8z"/>
		<path class="st1" d="M835.2,610.4h-21.1c0.4,5.3,4.4,8.8,9.9,8.8c3.1,0,5.8-1.1,7.7-3.3l1.9,2.2c-2.3,2.7-5.8,4.1-9.7,4.1
			c-7.9,0-13.2-5.4-13.2-12.9s5.2-12.8,12.3-12.8c7.1,0,12.2,5.2,12.2,12.8C835.2,609.7,835.2,610,835.2,610.4z M814.1,607.9H832
			c-0.4-4.9-4-8.4-9-8.4C818.1,599.5,814.5,602.9,814.1,607.9z"/>
		<path class="st1" d="M838.7,619.1l1.5-2.7c2,1.6,5.4,2.8,9,2.8c4.8,0,6.8-1.6,6.8-4.1c0-6.6-16.4-1.4-16.4-11.4
			c0-4.1,3.6-7.2,10-7.2c3.3,0,6.8,0.9,8.9,2.4l-1.5,2.7c-2.2-1.5-4.8-2.2-7.4-2.2c-4.6,0-6.6,1.8-6.6,4.2c0,6.8,16.4,1.7,16.4,11.4
			c0,4.4-3.8,7.2-10.4,7.2C844.8,622.2,840.8,620.9,838.7,619.1z"/>
		<path class="st1" d="M864.9,588.8c0-1.3,1.1-2.4,2.5-2.4s2.5,1.1,2.5,2.4c0,1.4-1.1,2.5-2.5,2.5
			C866,591.2,864.9,590.1,864.9,588.8z M865.7,596.7h3.4V622h-3.4V596.7z"/>
		<path class="st1" d="M902,596.7v22.2c0,8.7-4.3,12.6-12.6,12.6c-4.6,0-9.1-1.4-11.8-3.9l1.7-2.6c2.4,2.2,6,3.5,9.9,3.5
			c6.4,0,9.3-2.9,9.3-9.2v-3.2c-2.1,3.2-5.7,4.9-9.8,4.9c-7.2,0-12.7-5-12.7-12.3c0-7.2,5.5-12.2,12.7-12.2c4.2,0,7.9,1.7,10,5v-4.8
			H902z M898.6,608.8c0-5.5-4-9.2-9.6-9.2s-9.6,3.7-9.6,9.2s4,9.3,9.6,9.3S898.6,614.2,898.6,608.8z"/>
		<path class="st1" d="M934.7,607.4V622h-3.4v-14.3c0-5.3-2.8-8.1-7.6-8.1c-5.4,0-8.8,3.4-8.8,9.1V622h-3.4v-25.3h3.3v4.7
			c1.8-3.1,5.2-4.8,9.6-4.8C930.5,596.6,934.7,600.1,934.7,607.4z"/>
		<path class="st1" d="M981.3,622.5l-4.7-4.8c-2.8,3-6.7,4.6-11.2,4.6c-6.6,0-11.3-3.5-11.3-8.5c0-4,2.3-6.9,8.4-10.5
			c-3.3-3.4-4.2-5.4-4.2-8c0-4.3,3.3-7.2,8.5-7.2c4.8,0,7.8,2.5,7.8,6.7c0,3.4-2,5.7-7.5,8.9l9.2,9.5c1-1.8,1.8-3.9,2.3-6.5l2.8,0.9
			c-0.6,3-1.6,5.6-3,7.7l4.8,4.9L981.3,622.5z M974.7,615.7l-10.1-10.4c-5.4,3.1-7,5.2-7,8.2c0,3.6,3.3,6,8.1,6
			C969.3,619.5,972.4,618.2,974.7,615.7z M961.6,595.3c0,2,0.7,3.4,3.8,6.5c4.8-2.8,6.4-4.5,6.4-6.9c0-2.5-1.8-4.2-4.9-4.2
			C963.5,590.7,961.6,592.6,961.6,595.3z"/>
		<path class="st1" d="M1002,588.4h13.7c10.8,0,18,6.9,18,16.8c0,9.9-7.2,16.8-18,16.8H1002V588.4z M1015.5,618.9
			c8.9,0,14.7-5.7,14.7-13.7c0-8.1-5.8-13.7-14.7-13.7h-9.9v27.5H1015.5z"/>
		<path class="st1" d="M1062.9,610.4h-21.1c0.4,5.3,4.4,8.8,9.9,8.8c3.1,0,5.8-1.1,7.7-3.3l1.9,2.2c-2.3,2.7-5.8,4.1-9.7,4.1
			c-7.9,0-13.2-5.4-13.2-12.9s5.2-12.8,12.3-12.8s12.2,5.2,12.2,12.8C1062.9,609.7,1062.9,610,1062.9,610.4z M1041.8,607.9h17.9
			c-0.4-4.9-4-8.4-9-8.4C1045.8,599.5,1042.2,602.9,1041.8,607.9z"/>
		<path class="st1" d="M1090.6,596.7l-11.2,25.3h-3.5l-11.2-25.3h3.6l9.5,21.5l9.6-21.5H1090.6z"/>
		<path class="st1" d="M1116.7,610.4h-21.1c0.4,5.3,4.4,8.8,9.9,8.8c3.1,0,5.8-1.1,7.7-3.3l1.9,2.2c-2.3,2.7-5.8,4.1-9.7,4.1
			c-7.9,0-13.3-5.4-13.3-12.9s5.2-12.8,12.3-12.8c7.1,0,12.2,5.2,12.2,12.8C1116.7,609.7,1116.7,610,1116.7,610.4z M1095.6,607.9
			h17.9c-0.4-4.9-4-8.4-9-8.4C1099.6,599.5,1096,602.9,1095.6,607.9z"/>
		<path class="st1" d="M1123.7,586.4h3.4V622h-3.4V586.4z"/>
		<path class="st1" d="M1134.1,609.4c0-7.5,5.5-12.8,12.9-12.8s12.8,5.3,12.8,12.8s-5.4,12.9-12.8,12.9S1134.1,616.9,1134.1,609.4z
			 M1156.3,609.4c0-5.9-4-9.8-9.4-9.8c-5.4,0-9.4,3.9-9.4,9.8s4,9.8,9.4,9.8C1152.3,619.2,1156.3,615.3,1156.3,609.4z"/>
		<path class="st1" d="M1192.3,609.4c0,7.7-5.4,12.9-12.6,12.9c-4,0-7.5-1.7-9.6-5v14.1h-3.4v-34.6h3.3v5c2.1-3.4,5.6-5.2,9.7-5.2
			C1186.9,596.6,1192.3,601.7,1192.3,609.4z M1188.9,609.4c0-5.9-4.1-9.8-9.4-9.8c-5.4,0-9.4,4-9.4,9.8c0,5.9,4,9.8,9.4,9.8
			C1184.8,619.2,1188.9,615.3,1188.9,609.4z"/>
		<path class="st1" d="M1240.9,607.4V622h-3.4v-14.3c0-5.3-2.7-8.1-7.2-8.1c-5.2,0-8.4,3.4-8.4,9.1V622h-3.4v-14.3
			c0-5.3-2.7-8.1-7.3-8.1c-5.1,0-8.4,3.4-8.4,9.1V622h-3.4v-25.3h3.3v4.6c1.8-3,5-4.8,9.3-4.8c4.2,0,7.4,1.8,9,5.3
			c1.8-3.3,5.4-5.3,10-5.3C1236.9,596.6,1240.9,600.1,1240.9,607.4z"/>
		<path class="st1" d="M1272.3,610.4h-21.1c0.4,5.3,4.4,8.8,9.9,8.8c3.1,0,5.8-1.1,7.7-3.3l1.9,2.2c-2.3,2.7-5.8,4.1-9.7,4.1
			c-7.9,0-13.3-5.4-13.3-12.9s5.2-12.8,12.3-12.8c7.1,0,12.2,5.2,12.2,12.8C1272.3,609.7,1272.3,610,1272.3,610.4z M1251.1,607.9
			h17.9c-0.4-4.9-4-8.4-9-8.4C1255.2,599.5,1251.6,602.9,1251.1,607.9z"/>
		<path class="st1" d="M1302.5,607.4V622h-3.4v-14.3c0-5.3-2.8-8.1-7.6-8.1c-5.4,0-8.8,3.4-8.8,9.1V622h-3.4v-25.3h3.3v4.7
			c1.8-3.1,5.2-4.8,9.6-4.8C1298.3,596.6,1302.5,600.1,1302.5,607.4z"/>
		<path class="st1" d="M1325.1,620.5c-1.3,1.2-3.4,1.8-5.3,1.8c-4.8,0-7.4-2.7-7.4-7.3v-15.3h-4.5v-2.9h4.5v-5.5h3.4v5.5h7.7v2.9
			h-7.7v15.1c0,3,1.5,4.6,4.4,4.6c1.4,0,2.8-0.4,3.7-1.3L1325.1,620.5z"/>
	</g>
	<g class="st0">
		<g>
			<path class="st1" d="M685.4,623.5h-5.9l-8.8-25.5l-8.8,25.5H656l-12.3-36.6h6.8l8.6,25.8l8.9-25.8h5.5l8.8,25.9l8.8-25.9h6.6
				L685.4,623.5z M682.9,620.5h0.3l10.3-30.6h-0.2L682.9,620.5z M681.6,620.5h0.2l-10.4-30.6h-0.3L681.6,620.5z M659.6,620.5h0.1
				l10.6-30.6h-0.1L659.6,620.5z M658.2,620.5h0.4l-10.3-30.6h-0.5L658.2,620.5z"/>
		</g>
		<g>
			<path class="st1" d="M710.1,623.7c-8.7,0-14.7-5.9-14.7-14.4c0-8.3,5.8-14.3,13.8-14.3c8,0,13.7,6,13.7,14.3c0,0.2,0,0.4,0,0.6
				c0,0.2,0,0.3,0,0.5v1.5h-20.9c0.9,3.6,4,5.8,8.2,5.8c2.7,0,5-1,6.6-2.8l1.1-1.3l3.9,4.5l-0.8,1
				C718.5,622.1,714.6,623.7,710.1,623.7z M703.7,599.5c-3.2,1.9-5.3,5.5-5.3,9.9c0,6.7,4.8,11.4,11.7,11.4c2.6,0,5-0.7,6.8-2
				c-1.9,1.3-4.2,2-6.7,2c-6.3,0-11-4.2-11.4-10.2l-0.1-1.2h-0.1l0-0.4l0-0.1h0l0.1-1.2C699.1,604.1,700.9,601.2,703.7,599.5z
				 M719.8,608.9h0.2c-0.1-4.3-2.1-7.7-5.3-9.5c2.8,1.7,4.7,4.6,5,8.3L719.8,608.9z M702.1,606.4h14.3c-0.9-3.3-3.6-5.4-7.2-5.4
				C705.7,601,703,603.1,702.1,606.4z"/>
		</g>
		<g>
			<path class="st1" d="M741.4,623.7c-3.2,0-6-1-8.2-2.7v2.5h-6.3v-38.6h6.4v12.8c2.2-1.7,5-2.6,8.1-2.6c8.2,0,14.1,6,14.1,14.3
				C755.5,617.7,749.6,623.7,741.4,623.7z M740.1,620.7c0.4,0,0.9,0.1,1.4,0.1c6.5,0,11.1-4.7,11.1-11.4c0-6.3-4.1-10.9-10.2-11.3
				c5.7,0.5,9.7,5.1,9.7,11.3c0,6.6-4.6,11.3-10.9,11.3C740.8,620.7,740.4,620.7,740.1,620.7z M729.9,620.5h0.3v-8.9l0.4,0.7
				c-0.2-0.9-0.3-1.9-0.3-3c0-1.2,0.1-2.3,0.4-3.3l-0.4,0.6v-18.7h-0.4V620.5z M741.2,601c-4.7,0-7.9,3.4-7.9,8.3s3.3,8.3,7.9,8.3
				s7.9-3.4,7.9-8.3S745.9,601,741.2,601z"/>
		</g>
		<g>
			<path class="st1" d="M788,623.5h-15.2v-36.6H788c11.5,0,19.5,7.5,19.5,18.3S799.4,623.5,788,623.5z M775.8,620.5H788
				c9.9,0,16.5-6.1,16.5-15.3s-6.6-15.3-16.5-15.3h-12.2V620.5z M787.8,620.4h-11.4V590h11.4c9.5,0,16.2,6.3,16.2,15.2
				S797.3,620.4,787.8,620.4z M779.3,617.4h8.4c8,0,13.2-4.8,13.2-12.2s-5.2-12.2-13.2-12.2h-8.4V617.4z"/>
		</g>
		<g>
			<path class="st1" d="M823.9,623.7c-8.7,0-14.7-5.9-14.7-14.4c0-8.3,5.8-14.3,13.8-14.3c8,0,13.7,6,13.7,14.3c0,0.2,0,0.4,0,0.6
				c0,0.2,0,0.3,0,0.5v1.5h-20.9c0.9,3.6,4,5.8,8.2,5.8c2.7,0,5-1,6.6-2.8l1.1-1.3l3.9,4.5l-0.8,1
				C832.3,622.1,828.4,623.7,823.9,623.7z M817.4,599.5c-3.2,1.9-5.3,5.5-5.3,9.9c0,6.7,4.8,11.4,11.7,11.4c2.6,0,5-0.7,6.8-2
				c-1.9,1.3-4.2,2-6.7,2c-6.3,0-11-4.2-11.4-10.2l-0.1-1.2h-0.1l0-0.4l0-0.1h0l0.1-1.2C812.9,604.1,814.7,601.2,817.4,599.5z
				 M833.6,608.9h0.2c-0.1-4.3-2.1-7.7-5.3-9.5c2.8,1.7,4.7,4.6,5,8.3L833.6,608.9z M815.8,606.4h14.3c-0.9-3.3-3.6-5.4-7.2-5.4
				C819.5,601,816.8,603.1,815.8,606.4z"/>
		</g>
		<g>
			<path class="st1" d="M849,623.7c-4.4,0-8.8-1.4-11.3-3.5l-0.9-0.8l3-5.3l1.4,1.1c1.9,1.5,5.1,2.5,8.1,2.5c5.3,0,5.3-2,5.3-2.6
				c0-1.5-1.8-2-5.7-2.7c-4.5-0.8-10.7-1.9-10.7-8.7c0-5.3,4.5-8.7,11.5-8.7c3.6,0,7.4,1,9.8,2.6l1.1,0.8l-2.9,5.4l-1.4-1
				c-1.8-1.2-4.1-1.9-6.6-1.9c-1.9,0-5.1,0.3-5.1,2.7c0,1.7,1.9,2.2,5.9,2.9c4.4,0.8,10.5,1.9,10.5,8.4
				C860.9,620.4,856.3,623.7,849,623.7z M840.7,618.7c1.8,1.1,4.3,1.8,6.9,2c-2.5-0.2-4.9-1-6.9-2.1L840.7,618.7z M844.5,599
				c-2.2,1-3.4,2.6-3.4,4.8c0,4,3.1,4.8,8.2,5.7c3.8,0.7,8.1,1.5,8.1,5.7c0,1.3-0.4,3.2-2.5,4.4c1.9-1,2.9-2.5,2.9-4.5
				c0-3.8-3-4.6-8-5.5c-3.9-0.7-8.3-1.5-8.3-5.9C841.5,602.7,841.8,600.3,844.5,599z M854.8,598.8c0.6,0.2,1.2,0.4,1.7,0.7l0-0.1
				C856,599.2,855.4,599,854.8,598.8z"/>
		</g>
		<g>
			<path class="st1" d="M870.6,623.5h-6.4v-28.3h6.4V623.5z M867.2,620.5h0.4v-22.3h-0.4V620.5z M867.4,592.7c-2.2,0-4-1.8-4-3.9
				c0-2.2,1.8-3.9,4-3.9s4,1.7,4,3.9C871.4,591,869.6,592.7,867.4,592.7z M867.4,587.9c-0.5,0-1,0.4-1,0.9c0,0.5,0.4,0.9,1,0.9
				c0.6,0,1-0.4,1-1C868.4,588.3,867.9,587.9,867.4,587.9z"/>
		</g>
		<g>
			<path class="st1" d="M889.3,633.1c-5.2,0-9.9-1.6-12.8-4.3l-0.9-0.9l3.4-5.1l1.3,1.2c2.1,1.9,5.5,3.1,8.9,3.1
				c5.4,0,7.7-2.1,7.8-7.1c-2.3,1.7-5.1,2.6-8.3,2.6c-8.2,0-14.2-5.8-14.2-13.8c0-7.9,6-13.7,14.2-13.7c3.3,0,6.2,1,8.5,2.7v-2.5
				h6.3v23.7C903.5,628.3,898.7,633.1,889.3,633.1z M879.6,627.4c2.4,1.7,6,2.7,9.8,2.7c7.7,0,11.1-3.4,11.1-11.1v-20.7h-0.3v8.5
				l-0.3-0.5c0.2,0.8,0.3,1.6,0.3,2.5c0,0.9-0.1,1.8-0.3,2.7l0.2-0.3v8.2c0,7.1-3.6,10.7-10.8,10.7c-3.6,0-7-1-9.6-2.8L879.6,627.4z
				 M888,598.1c-6.2,0.3-10.5,4.6-10.5,10.7c0,6.3,4.7,10.8,11.2,10.8c0.4,0,0.8,0,1.2,0c-0.3,0-0.5,0-0.8,0
				c-6.4,0-11.1-4.5-11.1-10.8C878,602.9,882.1,598.5,888,598.1z M889,601c-4.8,0-8.1,3.1-8.1,7.7c0,4.6,3.3,7.8,8.1,7.8
				c4.8,0,8.1-3.2,8.1-7.8C897.1,604.2,893.8,601,889,601z"/>
		</g>
		<g>
			<path class="st1" d="M936.2,623.5h-6.4v-15.8c0-4.4-2-6.6-6.1-6.6c-4.7,0-7.3,2.8-7.3,7.6v14.7H910v-28.3h6.3v2.3
				c2.1-1.6,4.9-2.5,8.1-2.5c7.4,0,11.9,4.6,11.9,12.3V623.5z M932.8,620.5h0.4v-13.1c0-6-3.1-9.3-8.9-9.3c-0.6,0-1.3,0-1.8,0.1
				c0.4,0,0.8-0.1,1.2-0.1c5.8,0,9.1,3.5,9.1,9.6V620.5z M913,620.5h0.4v-11.7c0-0.9,0.1-1.7,0.2-2.5l-0.3,0.6v-8.6H913V620.5z"/>
		</g>
		<g>
			<path class="st1" d="M981.4,624.7l-4.8-4.9c-3,2.6-6.8,3.9-11.2,3.9c-7.5,0-12.8-4.1-12.8-10c0-4.2,2.2-7.4,7.6-10.8
				c-2.5-2.8-3.4-4.9-3.4-7.6c0-5.2,4-8.7,10-8.7c5.7,0,9.3,3.2,9.3,8.2c0,4-2.5,6.6-6.6,9.2l6.4,6.6c0.5-1.3,0.9-2.6,1.2-4.2
				l0.3-1.7l5.7,1.8l-0.3,1.3c-0.6,2.7-1.4,5.1-2.6,7.2l5,5.1L981.4,624.7z M957,609.6c-1,1.4-1.3,2.7-1.3,4.1
				c0,2.7,1.7,4.9,4.5,6.1c-2.6-1.3-4.2-3.5-4.2-6.4C956,612,956.3,610.8,957,609.6z M964.3,607.1c-4.4,2.7-5.3,4.3-5.3,6.3
				c0,2.8,2.6,4.5,6.6,4.5c2.7,0,5.1-0.8,6.9-2.3L964.3,607.1z M964.8,603.4l0.3,0.4L964.8,603.4L964.8,603.4l-0.5-0.6
				c-3.2-3.3-4.2-5-4.2-7.5c0-1.3,0.3-2.4,1-3.4c-0.7,0.9-1.1,2.1-1.1,3.4c0,2,0.6,3.6,3.8,6.9L964.8,603.4L964.8,603.4z
				 M966.9,592.2c-2.4,0-3.8,1.1-3.8,3.1c0,1.3,0.4,2.3,2.6,4.6c3.9-2.3,4.7-3.6,4.7-5C970.3,592.5,968.2,592.2,966.9,592.2z"/>
		</g>
		<g>
			<path class="st1" d="M1015.7,623.5h-15.2v-36.6h15.2c11.5,0,19.5,7.5,19.5,18.3S1027.1,623.5,1015.7,623.5z M1003.5,620.5h12.2
				c9.9,0,16.5-6.1,16.5-15.3s-6.6-15.3-16.5-15.3h-12.2V620.5z M1015.5,620.4H1004V590h11.4c9.5,0,16.2,6.3,16.2,15.2
				C1031.7,614.3,1025.2,620.4,1015.5,620.4z M1007,617.4h8.4c8,0,13.2-4.8,13.2-12.2s-5.2-12.2-13.2-12.2h-8.4V617.4z"/>
		</g>
		<g>
			<path class="st1" d="M1051.6,623.7c-8.7,0-14.7-5.9-14.7-14.4c0-8.3,5.8-14.3,13.8-14.3c8,0,13.7,6,13.7,14.3c0,0.2,0,0.4,0,0.6
				c0,0.2,0,0.3,0,0.5v1.5h-20.9c0.9,3.6,4,5.8,8.2,5.8c2.7,0,5-1,6.6-2.8l1.1-1.3l3.9,4.5l-0.8,1
				C1060,622.1,1056.1,623.7,1051.6,623.7z M1045.1,599.5c-3.2,1.9-5.3,5.5-5.3,9.9c0,6.7,4.8,11.4,11.7,11.4c2.6,0,5-0.7,6.8-2
				c-1.9,1.3-4.2,2-6.7,2c-6.3,0-11-4.2-11.4-10.2l-0.1-1.2h-0.1l0-0.4l0-0.1h0l0.1-1.2C1040.6,604.1,1042.4,601.2,1045.1,599.5z
				 M1061.3,608.9h0.2c-0.1-4.3-2.1-7.7-5.3-9.5c2.8,1.7,4.7,4.6,5,8.3L1061.3,608.9z M1043.6,606.4h14.3c-0.9-3.3-3.6-5.4-7.2-5.4
				C1047.2,601,1044.5,603.1,1043.6,606.4z"/>
		</g>
		<g>
			<path class="st1" d="M1080.4,623.5h-5.5l-12.5-28.3h6.8l8.5,19.3l8.6-19.3h6.6L1080.4,623.5z M1078.4,620.5L1078.4,620.5l10-22.3
				h-0.1L1078.4,620.5z M1076.9,620.5h0.2l-9.8-22.3h-0.3L1076.9,620.5z"/>
		</g>
		<g>
			<path class="st1" d="M1105.4,623.7c-8.7,0-14.8-5.9-14.8-14.4c0-8.3,5.8-14.3,13.8-14.3c8,0,13.7,6,13.7,14.3c0,0.2,0,0.4,0,0.6
				c0,0.2,0,0.3,0,0.5v1.5h-20.9c0.9,3.6,4,5.8,8.2,5.8c2.7,0,5-1,6.6-2.8l1.1-1.3l3.9,4.5l-0.8,1
				C1113.8,622.1,1109.9,623.7,1105.4,623.7z M1098.9,599.5c-3.2,1.9-5.3,5.5-5.3,9.9c0,6.7,4.8,11.4,11.8,11.4c2.6,0,5-0.7,6.8-2
				c-1.9,1.3-4.2,2-6.7,2c-6.3,0-11-4.2-11.4-10.2l-0.1-1.2h-0.1l0-0.4l0-0.1h0l0.1-1.2C1094.4,604.1,1096.2,601.2,1098.9,599.5z
				 M1115.1,608.9h0.2c-0.1-4.3-2.1-7.7-5.3-9.5c2.8,1.7,4.7,4.6,5,8.3L1115.1,608.9z M1097.4,606.4h14.3c-0.9-3.3-3.6-5.4-7.2-5.4
				C1101,601,1098.3,603.1,1097.4,606.4z"/>
		</g>
		<g>
			<path class="st1" d="M1128.6,623.5h-6.4v-38.6h6.4V623.5z M1125.2,620.5h0.4v-32.6h-0.4V620.5z"/>
		</g>
		<g>
			<path class="st1" d="M1146.9,623.7c-8.3,0-14.4-6-14.4-14.4c0-8.3,6-14.3,14.4-14.3c8.3,0,14.3,6,14.3,14.3
				C1161.3,617.7,1155.2,623.7,1146.9,623.7z M1144.4,598.3c-5.2,1.1-8.8,5.4-8.8,11.1c0,6.6,4.8,11.4,11.4,11.4
				c6.6,0,11.3-4.8,11.3-11.4c0-5.9-3.7-10.3-9.2-11.2c5.2,0.9,8.7,5.3,8.7,11.2c0,6.6-4.6,11.3-10.9,11.3
				c-6.3,0-10.9-4.8-10.9-11.3C1136,603.7,1139.4,599.4,1144.4,598.3z M1146.9,601c-4.7,0-7.9,3.4-7.9,8.3s3.3,8.3,7.9,8.3
				c4.7,0,7.9-3.4,7.9-8.3S1151.6,601,1146.9,601z"/>
		</g>
		<g>
			<path class="st1" d="M1171.6,632.8h-6.4v-37.6h6.3v2.6c2.2-1.8,5.1-2.8,8.2-2.8c8.2,0,14.1,6,14.1,14.3c0,8.3-5.9,14.4-14.1,14.4
				c-3.1,0-5.9-0.9-8.1-2.6V632.8z M1168.2,629.8h0.4v-17.6l0.4,0.6c-0.3-1.1-0.4-2.2-0.4-3.4c0-1.1,0.1-2.1,0.4-3.1l-0.4,0.7v-8.8
				h-0.3V629.8z M1178.4,620.7c0.4,0,0.9,0.1,1.3,0.1c6.5,0,11.1-4.7,11.1-11.4c0-6.3-4.1-10.9-10.2-11.3c5.7,0.5,9.7,5.1,9.7,11.3
				c0,6.6-4.6,11.3-10.9,11.3C1179.1,620.7,1178.8,620.7,1178.4,620.7z M1179.5,601c-4.7,0-7.9,3.4-7.9,8.3s3.3,8.3,7.9,8.3
				c4.7,0,7.9-3.4,7.9-8.3S1184.1,601,1179.5,601z"/>
		</g>
		<g>
			<path class="st1" d="M1242.4,623.5h-6.4v-15.8c0-4.4-1.9-6.6-5.7-6.6c-4.4,0-6.9,2.8-6.9,7.6v14.7h-6.4v-15.8
				c0-4.4-1.9-6.6-5.8-6.6c-4.4,0-6.9,2.8-6.9,7.6v14.7h-6.4v-28.3h6.3v2.2c2.1-1.6,4.7-2.4,7.8-2.4c4,0,7.1,1.4,9.1,4.1
				c2.3-2.6,5.9-4.1,9.8-4.1c7.3,0,11.7,4.6,11.7,12.3V623.5z M1239,620.5h0.4v-13.1c0-6.1-3-9.3-8.7-9.3c-0.7,0-1.5,0.1-2.1,0.2
				c0.5-0.1,1.1-0.1,1.7-0.1c5.5,0,8.7,3.6,8.7,9.6V620.5z M1219.9,620.5h0.4v-11.7c0-1.5,0.2-2.8,0.5-4l-0.3,0.5l-1.2-2.8
				c-1.6-3.7-5-4.4-7.6-4.4c-0.6,0-1.2,0-1.7,0.1c0.3,0,0.7,0,1,0c5.6,0,8.8,3.5,8.8,9.6V620.5z M1200.8,620.5h0.4v-11.7
				c0-0.9,0.1-1.7,0.2-2.5l-0.4,0.6v-8.6h-0.3V620.5z"/>
		</g>
		<g>
			<path class="st1" d="M1261,623.7c-8.7,0-14.8-5.9-14.8-14.4c0-8.3,5.8-14.3,13.8-14.3c8,0,13.7,6,13.7,14.3c0,0.2,0,0.4,0,0.6
				c0,0.2,0,0.3,0,0.5v1.5h-20.9c0.9,3.6,4,5.8,8.2,5.8c2.7,0,5-1,6.6-2.8l1.1-1.3l3.9,4.5l-0.8,1
				C1269.4,622.1,1265.5,623.7,1261,623.7z M1254.5,599.5c-3.2,1.9-5.3,5.5-5.3,9.9c0,6.7,4.8,11.4,11.8,11.4c2.6,0,5-0.7,6.8-2
				c-1.9,1.3-4.2,2-6.7,2c-6.3,0-11-4.2-11.4-10.2l-0.1-1.2h-0.1l0-0.4l0-0.1h0l0.1-1.2C1250,604.1,1251.8,601.2,1254.5,599.5z
				 M1270.6,608.9h0.2c-0.1-4.3-2.1-7.7-5.3-9.5c2.8,1.7,4.7,4.6,5,8.3L1270.6,608.9z M1252.9,606.4h14.3c-0.9-3.3-3.6-5.4-7.2-5.4
				C1256.5,601,1253.8,603.1,1252.9,606.4z"/>
		</g>
		<g>
			<path class="st1" d="M1304,623.5h-6.4v-15.8c0-4.4-2-6.6-6.1-6.6c-4.7,0-7.3,2.8-7.3,7.6v14.7h-6.4v-28.3h6.3v2.3
				c2.1-1.6,4.9-2.5,8.1-2.5c7.4,0,11.9,4.6,11.9,12.3V623.5z M1300.6,620.5h0.4v-13.1c0-6-3.1-9.3-8.9-9.3c-0.6,0-1.3,0-1.8,0.1
				c0.4,0,0.8-0.1,1.2-0.1c5.8,0,9.1,3.5,9.1,9.6V620.5z M1280.8,620.5h0.4v-11.7c0-0.9,0.1-1.7,0.2-2.5l-0.3,0.6v-8.6h-0.3V620.5z"
				/>
		</g>
		<g>
			<path class="st1" d="M1319.7,623.7c-5.6,0-8.9-3.3-8.9-8.8v-13.8h-4.5v-5.9h4.5v-5.5h6.4v5.5h7.7v5.9h-7.7v13.6
				c0,2.8,1.5,3.1,2.9,3.1c1.1,0,2.1-0.3,2.7-0.9l1.5-1.3l2.6,5.3l-0.8,0.8C1324.5,623,1322.2,623.7,1319.7,623.7z M1313.8,598.1
				v16.8c0,3.5,1.6,5.5,4.9,5.8c-2.8-0.5-4.5-2.7-4.5-6v-22h-0.4V598.1z"/>
		</g>
	</g>
	<g class="st0">
		<path class="st2" d="M636.3,541.7l5-5.7c4.3,6.3,10.1,9.7,17.1,9.7c9.7,0,14.7-5.8,14.7-17.4v-47.9h-28.9v-7.2h37.2V528
			c0,16.7-7.9,25-23.1,25C649.3,553,641.2,548.9,636.3,541.7z"/>
		<path class="st2" d="M751.4,531.2h-44.1l-9.5,21.1h-8.7l36.2-79.1h8.2l36.2,79.1h-8.8L751.4,531.2z M748.3,524.4l-19-42.5
			l-19,42.5H748.3z"/>
		<path class="st2" d="M862,473.2v79.1h-8V489l-31.1,53.2h-4l-31.1-52.9v62.9h-8v-79.1h6.9l34.4,58.7l34-58.7H862z"/>
		<path class="st2" d="M940.8,545.1v7.2h-55.9v-79.1h54.2v7.2h-45.9v28.1h40.9v7.1h-40.9v29.4H940.8z"/>
		<path class="st2" d="M949.9,542.7l3.3-6.4c5.7,5.5,15.7,9.6,26.1,9.6c14.8,0,21.2-6.2,21.2-14c0-21.7-48.7-8.4-48.7-37.6
			c0-11.6,9-21.7,29.2-21.7c8.9,0,18.2,2.6,24.5,7l-2.8,6.7c-6.8-4.4-14.7-6.6-21.7-6.6c-14.5,0-20.9,6.4-20.9,14.4
			c0,21.7,48.7,8.6,48.7,37.4c0,11.6-9.3,21.6-29.5,21.6C967.4,553,955.8,548.8,949.9,542.7z"/>
		<path class="st2" d="M1050.7,473.2h8.4v79.1h-8.4V473.2z"/>
		<path class="st2" d="M1148,473.2v79.1h-6.9l-50.9-64.2v64.2h-8.4v-79.1h6.9l51,64.2v-64.2H1148z"/>
		<path class="st2" d="M1163.8,512.7c0-23.2,17.6-40.2,41.5-40.2c11.5,0,21.9,3.8,28.9,11.5l-5.3,5.3c-6.4-6.6-14.4-9.4-23.4-9.4
			c-19.1,0-33.4,14-33.4,32.8c0,18.8,14.4,32.8,33.4,32.8c9,0,17-2.8,23.4-9.5l5.3,5.3c-7,7.7-17.4,11.6-29,11.6
			C1181.4,553,1163.8,535.9,1163.8,512.7z"/>
		<path class="st2" d="M1315.2,473.2v79.1h-8.2v-36.5h-49.5v36.5h-8.4v-79.1h8.4v35.3h49.5v-35.3H1315.2z"/>
	</g>
	<g class="st0">
		<path class="st3" d="M636.3,541.7l5-5.7c4.3,6.3,10.1,9.7,17.1,9.7c9.7,0,14.7-5.8,14.7-17.4v-47.9h-28.9v-7.2h37.2V528
			c0,16.7-7.9,25-23.1,25C649.3,553,641.2,548.9,636.3,541.7z"/>
		<path class="st3" d="M751.4,531.2h-44.1l-9.5,21.1h-8.7l36.2-79.1h8.2l36.2,79.1h-8.8L751.4,531.2z M748.3,524.4l-19-42.5
			l-19,42.5H748.3z"/>
		<path class="st3" d="M862,473.2v79.1h-8V489l-31.1,53.2h-4l-31.1-52.9v62.9h-8v-79.1h6.9l34.4,58.7l34-58.7H862z"/>
		<path class="st3" d="M940.8,545.1v7.2h-55.9v-79.1h54.2v7.2h-45.9v28.1h40.9v7.1h-40.9v29.4H940.8z"/>
		<path class="st3" d="M949.9,542.7l3.3-6.4c5.7,5.5,15.7,9.6,26.1,9.6c14.8,0,21.2-6.2,21.2-14c0-21.7-48.7-8.4-48.7-37.6
			c0-11.6,9-21.7,29.2-21.7c8.9,0,18.2,2.6,24.5,7l-2.8,6.7c-6.8-4.4-14.7-6.6-21.7-6.6c-14.5,0-20.9,6.4-20.9,14.4
			c0,21.7,48.7,8.6,48.7,37.4c0,11.6-9.3,21.6-29.5,21.6C967.4,553,955.8,548.8,949.9,542.7z"/>
		<path class="st3" d="M1050.7,473.2h8.4v79.1h-8.4V473.2z"/>
		<path class="st3" d="M1148,473.2v79.1h-6.9l-50.9-64.2v64.2h-8.4v-79.1h6.9l51,64.2v-64.2H1148z"/>
		<path class="st3" d="M1163.8,512.7c0-23.2,17.6-40.2,41.5-40.2c11.5,0,21.9,3.8,28.9,11.5l-5.3,5.3c-6.4-6.6-14.4-9.4-23.4-9.4
			c-19.1,0-33.4,14-33.4,32.8c0,18.8,14.4,32.8,33.4,32.8c9,0,17-2.8,23.4-9.5l5.3,5.3c-7,7.7-17.4,11.6-29,11.6
			C1181.4,553,1163.8,535.9,1163.8,512.7z"/>
		<path class="st3" d="M1315.2,473.2v79.1h-8.2v-36.5h-49.5v36.5h-8.4v-79.1h8.4v35.3h49.5v-35.3H1315.2z"/>
	</g>
	<g id="Line_6">
		<rect x="644.5" y="566" class="st1" width="674" height="3"/>
	</g>
</g>
</svg>
