<svg id="Layer_1" data-name="Layer 1" xmlns="http://www.w3.org/2000/svg" viewBox="0 0 473.12 108.34"><defs><style>.cls-1,.cls-2{fill:#3d3535;}.cls-1{stroke:#3d3535;stroke-miterlimit:10;stroke-width:2px;}</style></defs><title>myWork</title><path class="cls-1" d="M726,158.9V238h-8V174.72l-31.08,53.22h-4l-31.07-52.88V238h-8V158.9h6.9l34.35,58.65,34-58.65Z" transform="translate(-642.88 -153.15)"/><path class="cls-1" d="M797.11,178.56l-29.72,66.56c-5,11.64-11.3,15.37-19.77,15.37-5.54,0-10.85-1.81-14.47-5.43l3.73-6a14.83,14.83,0,0,0,10.85,4.52c5.31,0,8.93-2.48,12.32-9.94l2.6-5.76-26.56-59.33h8.36l22.38,50.51,22.37-50.51Z" transform="translate(-642.88 -153.15)"/><path class="cls-1" d="M942.43,158.9,915.76,238H907l-23.17-67.46L860.5,238h-8.7l-26.67-79.1h8.59l22.83,68,23.62-68H888l23.28,68.36,23.17-68.36Z" transform="translate(-642.88 -153.15)"/><path class="cls-1" d="M942.54,208.28c0-17.63,12.88-30.17,30.28-30.17S1003,190.65,1003,208.28s-12.77,30.28-30.18,30.28S942.54,225.91,942.54,208.28Zm52.32,0c0-13.9-9.38-23.17-22-23.17s-22.15,9.27-22.15,23.17,9.5,23.17,22.15,23.17S994.86,222.18,994.86,208.28Z" transform="translate(-642.88 -153.15)"/><path class="cls-1" d="M1046.39,178.11v7.79c-.68,0-1.36-.11-1.92-.11-12.43,0-20,7.91-20,21.92V238h-8V178.56h7.69V190.2C1027.85,182.29,1035.43,178.11,1046.39,178.11Z" transform="translate(-642.88 -153.15)"/><path class="cls-1" d="M1080,208.17l-14,12.88V238h-8V154.15h8V211l35.49-32.43h9.94l-25.42,24.29,27.8,35.15h-9.84Z" transform="translate(-642.88 -153.15)"/><rect class="cls-2" x="1.12" y="97.35" width="78" height="3"/><rect class="cls-2" x="135.12" y="97.35" width="338" height="3"/></svg>